<svg width="113" height="32" viewBox="0 0 113 32" fill="none" xmlns="http://www.w3.org/2000/svg">
<path d="M32 16C32 7.16344 24.8366 0 16 0V10.6667C18.9455 10.6667 21.3333 13.0545 21.3333 16H32Z" fill="#094669"/>
<path fill-rule="evenodd" clip-rule="evenodd" d="M16 0C24.8366 0 32 7.16344 32 16C32 7.16344 24.8365 0 16 0C16 0 16 0 16 0ZM16 10.6667C13.0545 10.6667 10.6667 13.0545 10.6667 16C10.6667 18.9455 13.0545 21.3333 16 21.3333V32C7.16344 32 0 24.8366 0 16C0 7.16345 7.16343 1.02929e-05 16 0V10.6667Z" fill="#1D7FE0"/>
<ellipse cx="4" cy="4" rx="4" ry="4" transform="matrix(1 0 0 -1 21.3335 29.3333)" fill="#5DC5FA"/>
<path d="M39.9292 22.1365V9.91153H47.8584V11.663H41.9337V15.0607H47.3085V16.8121H41.9337V20.385H47.8584V22.1365H39.9292Z" fill="#0F172A"/>
<path d="M55.0917 22.3466C53.4716 22.3466 52.2003 21.8095 51.2779 20.7353C50.3555 19.6494 49.8943 18.079 49.8943 16.024C49.8943 14.9965 50.0125 14.0916 50.249 13.3093C50.4856 12.527 50.8285 11.8673 51.2779 11.3302C51.7273 10.7931 52.2713 10.3902 52.9098 10.1217C53.5603 9.84147 54.2875 9.70135 55.0917 9.70135C56.1678 9.70135 57.0666 9.93488 57.788 10.4019C58.5212 10.869 59.0947 11.5579 59.5086 12.4686L57.8234 13.3793C57.6106 12.7955 57.2795 12.3343 56.8301 11.9957C56.3925 11.6454 55.8131 11.4703 55.0917 11.4703C54.1338 11.4703 53.3829 11.7914 52.8389 12.4336C52.2949 13.0758 52.0229 13.9632 52.0229 15.0957V16.9523C52.0229 18.0848 52.2949 18.9722 52.8389 19.6144C53.3829 20.2566 54.1338 20.5777 55.0917 20.5777C55.8367 20.5777 56.4398 20.3909 56.901 20.0172C57.3741 19.6319 57.7229 19.1415 57.9476 18.546L59.5618 19.5093C59.1479 20.3967 58.5685 21.0915 57.8234 21.5935C57.0784 22.0956 56.1678 22.3466 55.0917 22.3466Z" fill="#0F172A"/>
<path d="M68.3032 22.1365C67.7947 22.1365 67.4045 21.9964 67.1325 21.7161C66.8605 21.4242 66.6949 21.0564 66.6358 20.6127H66.5471C66.3697 21.1849 66.0445 21.6169 65.5715 21.9088C65.0984 22.2007 64.5249 22.3466 63.8508 22.3466C62.8929 22.3466 62.1538 22.1014 61.6335 21.611C61.125 21.1206 60.8707 20.4609 60.8707 19.6319C60.8707 18.7212 61.2019 18.0381 61.8641 17.5828C62.5382 17.1274 63.5197 16.8997 64.8087 16.8997H66.4761V16.1291C66.4761 15.5686 66.3224 15.1366 66.0149 14.833C65.7075 14.5294 65.2285 14.3777 64.5781 14.3777C64.0341 14.3777 63.5907 14.4944 63.2477 14.7279C62.9048 14.9615 62.615 15.2592 62.3785 15.6212L61.2255 14.5878C61.533 14.0741 61.9646 13.6537 62.5204 13.3268C63.0762 12.9882 63.8035 12.8189 64.7023 12.8189C65.8967 12.8189 66.8132 13.0933 67.4518 13.6421C68.0903 14.1908 68.4096 14.979 68.4096 16.0065V20.5777H69.3853V22.1365H68.3032ZM64.4007 20.893C65.0038 20.893 65.5005 20.7645 65.8908 20.5076C66.281 20.2391 66.4761 19.883 66.4761 19.4393V18.1257H64.8442C63.5079 18.1257 62.8397 18.5344 62.8397 19.3517V19.667C62.8397 20.0756 62.9757 20.385 63.2477 20.5952C63.5315 20.7937 63.9159 20.893 64.4007 20.893Z" fill="#0F172A"/>
<path d="M71.2802 13.0291H73.2138V14.5353H73.3024C73.5035 13.9865 73.8287 13.5662 74.2781 13.2743C74.7393 12.9707 75.2773 12.8189 75.8923 12.8189C77.063 12.8189 77.9677 13.2392 78.6063 14.0799C79.2449 14.9089 79.5642 16.0765 79.5642 17.5828C79.5642 19.089 79.2449 20.2624 78.6063 21.1031C77.9677 21.9321 77.063 22.3466 75.8923 22.3466C75.2773 22.3466 74.7393 22.1949 74.2781 21.8913C73.8287 21.5877 73.5035 21.1673 73.3024 20.6302H73.2138V25.6393H71.2802V13.0291ZM75.3069 20.7003C75.981 20.7003 76.5191 20.4901 76.9211 20.0698C77.3232 19.6378 77.5242 19.0715 77.5242 18.3709V16.7946C77.5242 16.0941 77.3232 15.5336 76.9211 15.1133C76.5191 14.6812 75.981 14.4652 75.3069 14.4652C74.7156 14.4652 74.2189 14.6112 73.8169 14.9031C73.4148 15.1833 73.2138 15.557 73.2138 16.024V19.1415C73.2138 19.6086 73.4148 19.9881 73.8169 20.28C74.2189 20.5602 74.7156 20.7003 75.3069 20.7003Z" fill="#0F172A"/>
<path d="M84.2283 22.1365C83.5543 22.1365 83.0457 21.9672 82.7028 21.6286C82.3599 21.2783 82.1884 20.7879 82.1884 20.1574V14.5878H80.7516V13.0291H81.5321C81.8513 13.0291 82.0701 12.959 82.1884 12.8189C82.3185 12.6788 82.3835 12.4511 82.3835 12.1358V10.542H84.1219V13.0291H86.0554V14.5878H84.1219V20.5777H85.9135V22.1365H84.2283Z" fill="#0F172A"/>
<path d="M93.7404 20.6302H93.6694C93.5866 20.8521 93.4743 21.0681 93.3324 21.2783C93.2023 21.4884 93.0308 21.6753 92.818 21.8387C92.6169 21.9905 92.3686 22.1131 92.0729 22.2065C91.7891 22.2999 91.458 22.3466 91.0796 22.3466C90.1217 22.3466 89.3767 22.0431 88.8445 21.4359C88.3242 20.8287 88.064 19.9589 88.064 18.8263V13.0291H89.9975V18.5811C89.9975 19.9939 90.5888 20.7003 91.7714 20.7003C92.0197 20.7003 92.2622 20.6711 92.4987 20.6127C92.7352 20.5427 92.9421 20.4434 93.1195 20.315C93.3087 20.1866 93.4566 20.0231 93.563 19.8246C93.6812 19.6261 93.7404 19.3926 93.7404 19.124V13.0291H95.6739V22.1365H93.7404V20.6302Z" fill="#0F172A"/>
<path d="M98.4425 22.1365V13.0291H100.376V14.7805H100.465C100.595 14.3134 100.867 13.9048 101.281 13.5545C101.695 13.2042 102.268 13.0291 103.001 13.0291H103.516V14.8681H102.753C101.984 14.8681 101.393 14.9907 100.979 15.2359C100.577 15.4811 100.376 15.843 100.376 16.3217V22.1365H98.4425Z" fill="#0F172A"/>
<path d="M108.765 22.3466C108.103 22.3466 107.512 22.2357 106.991 22.0139C106.471 21.792 106.027 21.4768 105.661 21.0681C105.294 20.6478 105.01 20.1457 104.809 19.5619C104.62 18.9664 104.526 18.3067 104.526 17.5828C104.526 16.8588 104.62 16.205 104.809 15.6212C105.01 15.0257 105.294 14.5236 105.661 14.1149C106.027 13.6946 106.471 13.3735 106.991 13.1517C107.512 12.9298 108.103 12.8189 108.765 12.8189C109.439 12.8189 110.03 12.9357 110.539 13.1692C111.059 13.4027 111.491 13.7296 111.834 14.15C112.177 14.5586 112.431 15.0374 112.597 15.5861C112.774 16.1349 112.863 16.7246 112.863 17.3551V18.0732H106.53V18.3709C106.53 19.0715 106.737 19.6494 107.151 20.1048C107.577 20.5485 108.18 20.7704 108.96 20.7704C109.528 20.7704 110.007 20.6478 110.397 20.4026C110.787 20.1574 111.118 19.8246 111.39 19.4042L112.526 20.5076C112.183 21.0681 111.686 21.5176 111.036 21.8562C110.385 22.1832 109.628 22.3466 108.765 22.3466ZM108.765 14.3076C108.434 14.3076 108.127 14.366 107.843 14.4827C107.571 14.5995 107.334 14.763 107.133 14.9731C106.944 15.1833 106.796 15.4344 106.69 15.7263C106.583 16.0182 106.53 16.3393 106.53 16.6895V16.8121H110.823V16.637C110.823 15.9364 110.639 15.376 110.273 14.9556C109.906 14.5236 109.404 14.3076 108.765 14.3076Z" fill="#0F172A"/>
</svg>
