<svg width="52" height="52" viewBox="0 0 52 52" fill="none" xmlns="http://www.w3.org/2000/svg">
<g filter="url(#filter0_d_1045_200)">
<rect x="4" width="44.002" height="44" rx="8" fill="url(#paint0_radial_1045_200)" shape-rendering="crispEdges"/>
<path fill-rule="evenodd" clip-rule="evenodd" d="M26.001 38C34.8381 38 42.002 30.8366 42.002 22C42.002 13.1634 34.8381 6 26.001 6C17.1639 6 10 13.1634 10 22C10 30.8366 17.1639 38 26.001 38ZM23.9025 31.5738C23.8285 33.2751 23.1852 34.7722 22.5976 35.7524C17.4225 34.4762 13.3676 30.3555 12.1864 25.1439C13.1669 24.7726 14.7835 24.4221 17.0824 24.4918C21.4106 24.623 24.0337 28.5574 23.9025 31.5738ZM13.9347 23.3115C13.1847 23.3115 12.4941 23.4938 11.9394 23.7188C11.8772 23.2043 11.8425 22.6814 11.837 22.1514C12.3269 22.6264 13.04 23.1198 13.9347 23.3115ZM17.0824 22.7869C14.1768 22.0951 12.6701 20.9853 11.9681 20.0588C12.4297 16.6911 14.0753 13.7006 16.4714 11.5206C16.5196 12.9935 16.9191 15.464 17.8694 17.9344C18.5142 19.611 19.5079 20.7486 20.5074 21.8928C21.5406 23.0757 22.5801 24.2657 23.2467 26.0656C21.463 24.0721 19.2684 23.3115 18.394 23.1803C18.3503 22.7869 18.1841 21.7377 17.8694 20.6885C17.6285 19.8858 16.8093 18.7248 16.1636 17.9104C16.2484 17.717 16.2955 17.5034 16.2955 17.2787C16.2955 16.4095 15.5908 15.7049 14.7216 15.7049C13.8524 15.7049 13.1477 16.4095 13.1477 17.2787C13.1477 18.1479 13.8524 18.8525 14.7216 18.8525C14.8777 18.8525 15.0285 18.8297 15.1709 18.7874C15.7649 19.5246 16.6362 20.9128 17.0824 22.7869ZM26.001 7.83607C23.1708 7.83607 20.5344 8.66607 18.3221 10.0959C18.162 11.082 18.0706 12.179 18.2628 12.8197C18.6563 14.1311 21.0171 15.3115 22.591 15.5738C23.8501 15.7836 24.6895 16.1858 24.9518 16.3607C24.9955 15.9672 25.0305 14.9967 24.8206 14.2623C24.6494 13.6632 23.3613 12.6162 22.394 11.9185C22.2118 11.9922 22.0127 12.0328 21.804 12.0328C20.9348 12.0328 20.2302 11.3282 20.2302 10.459C20.2302 9.58985 20.9348 8.88525 21.804 8.88525C22.6733 8.88525 23.3779 9.58985 23.3779 10.459C23.3779 10.6262 23.3518 10.7873 23.3035 10.9384C24.1911 11.3739 25.7755 12.5396 26.2633 14.3934C26.9191 16.8852 26.3945 20.5574 26.001 21.4754C28.3182 17.2276 28.361 10.2003 27.8658 7.95771C27.2556 7.87747 26.6331 7.83607 26.001 7.83607ZM29.6734 14.3934C29.949 13.383 29.8425 10.288 29.7237 8.3303C31.1025 8.70484 32.3976 9.28238 33.5751 10.0288C33.6733 11.1974 33.6868 13.2655 33.0834 13.8689C32.6294 14.3229 31.957 14.2966 31.2427 14.2688C30.719 14.2483 30.1727 14.227 29.6734 14.3934ZM40.0252 19.9959C39.5224 16.4465 37.7039 13.3203 35.079 11.1267C35.0961 12.174 35.0748 13.5933 34.9196 14.5246C34.7098 15.7836 33.7829 17.6721 33.3457 18.459C33.8698 18.3049 34.8807 18.0551 35.7624 17.958C35.726 17.8252 35.7066 17.6854 35.7066 17.541C35.7066 16.6718 36.4112 15.9672 37.2804 15.9672C38.1497 15.9672 38.8543 16.6718 38.8543 17.541C38.8543 18.4102 38.1497 19.1148 37.2804 19.1148C37.1174 19.1148 36.9602 19.09 36.8123 19.044C36.6693 19.111 36.5184 19.179 36.3623 19.2459C36.1091 19.3544 35.776 19.4131 35.3824 19.4824C34.3489 19.6643 32.8981 19.9197 31.3784 21.3443C29.6996 22.918 28.493 25.4973 28.0995 26.5902C28.9739 25.5847 31.1423 23.5213 32.8211 23.3115C34.7907 23.0653 38.4932 21.7794 40.0252 19.9959ZM37.6739 23.3115C38.2615 23.1156 39.5042 22.2952 40.1649 21.8313C40.1655 21.8874 40.1659 21.9437 40.1659 22C40.1659 22.7062 40.1142 23.4004 40.0144 24.0789C39.7218 23.8111 38.6978 23.3115 37.6739 23.3115ZM29.0712 35.8303C34.3145 34.6717 38.4663 30.6079 39.7517 25.4138C38.8101 24.9443 37.2675 24.4112 35.5754 24.4918C32.8211 24.623 29.6734 26.1967 28.6241 28.5574C27.6233 30.8091 27.6965 31.8676 29.0712 35.8303ZM31.2473 15.4426C30.3029 15.4426 29.5422 15.7923 29.2799 15.9672C29.105 16.7978 28.6766 18.6426 28.3618 19.3771C28.2992 19.5231 28.2 19.7158 28.0802 19.9485C27.447 21.1784 26.2366 23.5294 26.788 26.0656C27.3126 24.4918 29.2799 21.4754 30.8538 19.9016C32.1129 18.6426 32.9523 16.1421 33.2146 15.0492C32.9523 15.1803 32.1916 15.4426 31.2473 15.4426ZM18.5251 15.3115C18.7437 16.4044 19.5219 18.8787 20.8859 20.0328C22.25 21.1869 23.7277 23.6612 24.296 24.7541C24.3397 23.7049 24.5321 21.3967 24.9518 20.5574C25.4764 19.5082 24.9518 17.4098 23.3779 17.2787C21.804 17.1475 18.9186 15.7049 18.5251 15.3115ZM21.804 11.2459C22.2386 11.2459 22.591 10.8936 22.591 10.459C22.591 10.0244 22.2386 9.67213 21.804 9.67213C21.3694 9.67213 21.0171 10.0244 21.0171 10.459C21.0171 10.8936 21.3694 11.2459 21.804 11.2459ZM38.0674 17.541C38.0674 17.9756 37.715 18.3279 37.2804 18.3279C36.8458 18.3279 36.4935 17.9756 36.4935 17.541C36.4935 17.1064 36.8458 16.7541 37.2804 16.7541C37.715 16.7541 38.0674 17.1064 38.0674 17.541ZM14.7216 18.0656C15.1562 18.0656 15.5085 17.7133 15.5085 17.2787C15.5085 16.8441 15.1562 16.4918 14.7216 16.4918C14.287 16.4918 13.9347 16.8441 13.9347 17.2787C13.9347 17.7133 14.287 18.0656 14.7216 18.0656Z" fill="white"/>
</g>
<defs>
<filter id="filter0_d_1045_200" x="0" y="0" width="52.002" height="52" filterUnits="userSpaceOnUse" color-interpolation-filters="sRGB">
<feFlood flood-opacity="0" result="BackgroundImageFix"/>
<feColorMatrix in="SourceAlpha" type="matrix" values="0 0 0 0 0 0 0 0 0 0 0 0 0 0 0 0 0 0 127 0" result="hardAlpha"/>
<feOffset dy="4"/>
<feGaussianBlur stdDeviation="2"/>
<feComposite in2="hardAlpha" operator="out"/>
<feColorMatrix type="matrix" values="0 0 0 0 0 0 0 0 0 0 0 0 0 0 0 0 0 0 0.25 0"/>
<feBlend mode="normal" in2="BackgroundImageFix" result="effect1_dropShadow_1045_200"/>
<feBlend mode="normal" in="SourceGraphic" in2="effect1_dropShadow_1045_200" result="shape"/>
</filter>
<radialGradient id="paint0_radial_1045_200" cx="0" cy="0" r="1" gradientUnits="userSpaceOnUse" gradientTransform="translate(26.001 2.7181e-06) rotate(90) scale(48.4 59.6778)">
<stop offset="0.375" stop-color="#0F1014" stop-opacity="0"/>
<stop offset="0.704545" stop-color="#10B981" stop-opacity="0.5"/>
<stop offset="0.909091" stop-color="#10B981"/>
</radialGradient>
</defs>
</svg>
