<svg class="w-8" width="44" height="40" viewBox="0 0 44 40" fill="none" xmlns="http://www.w3.org/2000/svg">
    <path d="M18.6459 36.5834C18.9053 35.9156 19.029 35.2028 19.0097 34.4867C19.0492 32.5019 19.5797 30.5578 20.5537 28.828C21.5253 27.1011 22.9108 25.6427 24.5857 24.584C25.2058 24.2514 25.7521 23.7964 26.1913 23.2465C26.6306 22.6967 26.9537 22.0635 27.1411 21.3851C27.3286 20.7068 27.3765 19.9975 27.2819 19.3002C27.1874 18.6028 26.9523 17.9319 26.591 17.328C26.1083 16.5213 25.4137 15.86 24.5857 15.42C24.111 15.0907 23.655 14.736 23.2203 14.356L22.131 13.2893C20.1349 11.1909 19.0156 8.40945 19.0017 5.51333C19.0223 4.79702 18.8993 4.08384 18.6398 3.41585C18.3803 2.74786 17.9897 2.13859 17.491 1.624C16.9945 1.10998 16.3996 0.701266 15.7416 0.422245C15.0837 0.143223 14.3763 -0.00038182 13.6617 7.62425e-07C12.9474 0.001008 12.2407 0.14525 11.5832 0.424195C10.9256 0.703139 10.3308 1.11112 9.83368 1.624C9.33585 2.1395 8.94582 2.74911 8.68643 3.41716C8.42704 4.08521 8.30349 4.79829 8.32301 5.51467C8.33466 6.44458 8.59079 7.35507 9.06568 8.15467C9.53893 8.95292 10.2146 9.61203 11.0243 10.0653C14.303 12.14 16.5843 16.1067 16.5843 20.008C16.5763 22.879 15.4782 25.6397 13.5123 27.732L11.0323 29.9347C10.223 30.3867 9.54701 31.0453 9.07235 31.8453C8.59635 32.644 8.34168 33.556 8.32968 34.4867C8.30929 35.203 8.43244 35.9161 8.69188 36.584C8.95132 37.252 9.34181 37.8613 9.84035 38.376C10.3369 38.8899 10.9319 39.2985 11.5898 39.5775C12.2477 39.8566 12.9551 40.0002 13.6697 40C14.3841 39.9992 15.0912 39.855 15.7489 39.5761C16.4067 39.2971 17.0018 38.889 17.499 38.376C17.9966 37.8606 18.3865 37.2512 18.6459 36.5834Z" fill="#4F46E5"/>
    <path d="M25.8883 8.48C25.3003 7.59733 24.987 6.55867 24.987 5.49733C24.9879 4.07564 25.5511 2.71201 26.5537 1.704C27.4254 0.826986 28.5752 0.280671 29.8057 0.158786C31.0362 0.0369002 32.2708 0.347042 33.2977 1.036C34.1772 1.62654 34.8621 2.46448 35.2657 3.444C35.6693 4.42464 35.7747 5.50256 35.5686 6.5428C35.3625 7.58304 34.8541 8.53936 34.107 9.292C33.3622 10.0426 32.4107 10.5542 31.3738 10.7615C30.3369 10.9688 29.2618 10.8625 28.2857 10.456C27.3086 10.0491 26.4743 9.36143 25.8883 8.48Z" fill="#4F46E5"/>
    <path d="M27.3617 30.024C28.2403 29.4347 29.2737 29.12 30.3297 29.12V29.1173C31.0316 29.1182 31.7265 29.2576 32.3745 29.5276C33.0225 29.7976 33.6108 30.1928 34.1057 30.6907C34.9803 31.5705 35.5243 32.7253 35.6457 33.9599C35.7672 35.1946 35.4587 36.4332 34.7723 37.4667C34.1865 38.3493 33.3516 39.038 32.3737 39.4453C31.3975 39.8518 30.3224 39.9582 29.2856 39.7508C28.2487 39.5435 27.2971 39.0319 26.5523 38.2813C25.805 37.5286 25.2964 36.572 25.0903 35.5315C24.8842 34.491 24.9897 33.4128 25.3937 32.432C25.7974 31.4525 26.4822 30.6146 27.3617 30.024Z" fill="#4F46E5"/>
    <path d="M43.099 17.0107C43.6855 17.893 43.9988 18.9299 43.999 19.9909C43.9981 21.4129 43.435 22.7769 42.4324 23.7853C41.9373 24.283 41.349 24.6781 40.7011 24.9481C40.0531 25.2181 39.3583 25.3576 38.6563 25.3587C37.5992 25.3587 36.566 25.044 35.6883 24.4547C34.8088 23.8641 34.124 23.0262 33.7203 22.0467C33.3164 21.0659 33.2109 19.9877 33.417 18.9472C33.6231 17.9066 34.1317 16.9501 34.879 16.1973C35.6239 15.4465 36.5757 14.9347 37.6128 14.7274C38.65 14.5201 39.7254 14.6266 40.7017 15.0333C41.6789 15.4406 42.5133 16.1287 43.099 17.0107Z" fill="#4F46E5"/>
    <path d="M2.37368 15.5293C3.25235 14.94 4.28435 14.6253 5.34168 14.6253C6.04348 14.6268 6.73809 14.7667 7.38579 15.0369C8.03349 15.3071 8.62155 15.7023 9.11635 16.2C9.9905 17.0795 10.5342 18.2339 10.6557 19.468C10.7772 20.702 10.4689 21.9402 9.78302 22.9733C9.19724 23.8552 8.3629 24.5434 7.38568 24.9507C6.4092 25.3551 5.33457 25.4605 4.29815 25.2532C3.26172 25.046 2.31021 24.5355 1.56435 23.7867C0.817286 23.034 0.30887 22.0777 0.102767 21.0375C-0.103336 19.9972 0.00203431 18.9193 0.405683 17.9387C0.80914 16.9587 1.49398 16.1203 2.37368 15.5293Z" fill="#4F46E5"/>
</svg>