<svg width="163" height="48" viewBox="0 0 163 48" fill="none" xmlns="http://www.w3.org/2000/svg">
<path fill-rule="evenodd" clip-rule="evenodd" d="M24.1129 48C37.3686 48 48.1144 37.2548 48.1144 24C48.1144 10.7452 37.3686 0 24.1129 0C10.8572 0 0.111389 10.7452 0.111389 24C0.111389 37.2548 10.8572 48 24.1129 48ZM20.9652 38.3607C20.8542 40.9127 19.8892 43.1583 19.0078 44.6287C11.2452 42.7143 5.16272 36.5332 3.39093 28.7159C4.86171 28.1589 7.28671 27.6332 10.735 27.7377C17.2272 27.9344 21.1619 33.8361 20.9652 38.3607ZM6.0134 25.9672C4.8885 25.9672 3.85248 26.2407 3.02052 26.5782C2.92716 25.8065 2.87518 25.022 2.86685 24.2271C3.60173 24.9396 4.67133 25.6796 6.0134 25.9672ZM10.735 25.1803C6.37666 24.1427 4.11649 22.4779 3.06357 21.0882C3.75598 16.0366 6.22429 11.5508 9.81852 8.28088C9.89086 10.4903 10.4901 14.196 11.9154 17.9016C12.8827 20.4165 14.3733 22.1229 15.8725 23.8392C17.4223 25.6135 18.9815 27.3985 19.9815 30.0984C17.3059 27.1082 14.0139 25.9672 12.7024 25.7705C12.6368 25.1803 12.3876 23.6066 11.9154 22.0328C11.5542 20.8287 10.3253 19.0872 9.35675 17.8655C9.484 17.5755 9.55461 17.255 9.55461 16.918C9.55461 15.6143 8.49765 14.5574 7.19381 14.5574C5.88997 14.5574 4.833 15.6143 4.833 16.918C4.833 18.2218 5.88997 19.2787 7.19381 19.2787C7.42799 19.2787 7.65421 19.2446 7.86777 19.1811C8.75867 20.2869 10.0657 22.3692 10.735 25.1803ZM24.1129 2.7541C19.8676 2.7541 15.913 3.99911 12.5945 6.14391C12.3544 7.62305 12.2173 9.26856 12.5056 10.2295C13.0958 12.1967 16.637 13.9672 18.9978 14.3607C20.8865 14.6754 22.1456 15.2787 22.539 15.541C22.6046 14.9508 22.6571 13.4951 22.3423 12.3934C22.0856 11.4948 20.1533 9.92436 18.7024 8.87773C18.4291 8.9883 18.1304 9.04918 17.8174 9.04918C16.5136 9.04918 15.4566 7.99228 15.4566 6.68853C15.4566 5.38477 16.5136 4.32787 17.8174 4.32787C19.1213 4.32787 20.1782 5.38477 20.1782 6.68853C20.1782 6.93928 20.1391 7.1809 20.0667 7.40763C21.3981 8.06085 23.7746 9.80946 24.5064 12.5902C25.4901 16.3279 24.7031 21.8361 24.1129 23.2131C27.5886 16.8414 27.6529 6.30043 26.91 2.93656C25.9947 2.8162 25.0611 2.7541 24.1129 2.7541ZM29.6215 12.5902C30.0349 11.0744 29.8752 6.43195 29.697 3.49544C31.7651 4.05726 33.7078 4.92357 35.4741 6.04325C35.6214 7.79604 35.6416 10.8983 34.7365 11.8033C34.0555 12.4843 33.047 12.4449 31.9755 12.4031C31.1899 12.3725 30.3705 12.3405 29.6215 12.5902ZM45.1491 20.9938C44.395 15.6697 41.6672 10.9804 37.7299 7.69009C37.7556 9.26107 37.7237 11.3899 37.4908 12.7869C37.176 14.6754 35.7858 17.5082 35.13 18.6885C35.9161 18.4573 37.4325 18.0827 38.755 17.937C38.7004 17.7378 38.6712 17.528 38.6712 17.3115C38.6712 16.0077 39.7282 14.9508 41.032 14.9508C42.3359 14.9508 43.3928 16.0077 43.3928 17.3115C43.3928 18.6152 42.3359 19.6721 41.032 19.6721C40.7875 19.6721 40.5517 19.635 40.3299 19.566C40.1154 19.6664 39.889 19.7685 39.6549 19.8689C39.275 20.0316 38.7754 20.1196 38.1849 20.2235C36.6348 20.4964 34.4585 20.8795 32.179 23.0164C29.6608 25.3771 27.8509 29.2459 27.2607 30.8853C28.5722 29.3771 31.8249 26.282 34.3431 25.9672C37.2974 25.5979 42.8513 23.6691 45.1491 20.9938ZM41.6222 25.9672C42.5036 25.6734 44.3677 24.4428 45.3587 23.7469C45.3597 23.8311 45.3602 23.9155 45.3602 24C45.3602 25.0594 45.2826 26.1006 45.1329 27.1184C44.694 26.7166 43.1581 25.9672 41.6222 25.9672ZM28.7183 44.7455C36.5831 43.0076 42.8109 36.9119 44.739 29.1207C43.3266 28.4164 41.0127 27.6168 38.4745 27.7377C34.3431 27.9344 29.6215 30.2951 28.0476 33.8361C26.5463 37.2137 26.6561 38.8014 28.7183 44.7455ZM31.9823 14.1639C30.5658 14.1639 29.4247 14.6885 29.0313 14.9508C28.769 16.1967 28.1263 18.9639 27.6541 20.0656C27.5602 20.2847 27.4114 20.5737 27.2317 20.9227C26.2819 22.7675 24.4663 26.2941 25.2933 30.0984C26.0803 27.7377 29.0313 23.2131 31.3921 20.8525C33.2807 18.9639 34.5398 15.2131 34.9333 13.5738C34.5398 13.7705 33.3988 14.1639 31.9823 14.1639ZM12.8991 13.9672C13.227 15.6066 14.3943 19.318 16.4403 21.0492C18.4863 22.7803 20.7029 26.4918 21.5554 28.1311C21.621 26.5574 21.9095 23.0951 22.539 21.8361C23.326 20.2623 22.539 17.1148 20.1782 16.918C17.8174 16.7213 13.4893 14.5574 12.8991 13.9672ZM17.8174 7.86885C18.4694 7.86885 18.9978 7.3404 18.9978 6.68853C18.9978 6.03665 18.4694 5.5082 17.8174 5.5082C17.1655 5.5082 16.637 6.03665 16.637 6.68853C16.637 7.3404 17.1655 7.86885 17.8174 7.86885ZM42.2124 17.3115C42.2124 17.9634 41.684 18.4918 41.032 18.4918C40.3801 18.4918 39.8516 17.9634 39.8516 17.3115C39.8516 16.6596 40.3801 16.1311 41.032 16.1311C41.684 16.1311 42.2124 16.6596 42.2124 17.3115ZM7.19381 18.0984C7.84573 18.0984 8.37421 17.5699 8.37421 16.918C8.37421 16.2662 7.84573 15.7377 7.19381 15.7377C6.54189 15.7377 6.0134 16.2662 6.0134 16.918C6.0134 17.5699 6.54189 18.0984 7.19381 18.0984Z" fill="white"/>
<path d="M67.0722 13.3505C68.2593 13.3717 69.2979 13.6472 70.1882 14.1771C71.0785 14.707 71.7568 15.4171 72.2231 16.3073C72.7107 17.1976 72.9544 18.2044 72.9544 19.3278C72.9544 20.1544 72.7955 20.9386 72.4775 21.6805C72.1808 22.4012 71.7674 23.0476 71.2375 23.6199C72.0006 24.1922 72.5941 24.9023 73.018 25.7501C73.4632 26.5979 73.6858 27.5306 73.6858 28.548C73.6858 29.629 73.4208 30.6252 72.8909 31.5366C72.3609 32.448 71.6508 33.1793 70.7605 33.7304C69.8702 34.2603 68.8846 34.5252 67.8035 34.5252H60.872V13.3505H67.0722ZM63.67 16.212V22.5071H67.0722C67.9413 22.5071 68.6726 22.1998 69.2661 21.5851C69.8597 20.9704 70.1564 20.218 70.1564 19.3278C70.1564 18.4375 69.8597 17.6957 69.2661 17.1022C68.6938 16.5087 67.9625 16.212 67.0722 16.212H63.67ZM63.67 25.3686V31.6638H67.8035C68.6726 31.6638 69.4039 31.367 69.9974 30.7735C70.591 30.1589 70.8877 29.417 70.8877 28.548C70.8877 27.6577 70.591 26.9053 69.9974 26.2906C69.4039 25.6759 68.6726 25.3686 67.8035 25.3686H63.67Z" fill="white"/>
<path d="M98.5958 34.4298V33.0945C98.1718 33.5396 97.6313 33.9105 96.9742 34.2073C96.3383 34.504 95.7024 34.6524 95.0664 34.6524C94.2186 34.6524 93.4025 34.4934 92.6182 34.1755C91.8551 33.8364 91.1767 33.37 90.5832 32.7766C90.0109 32.1831 89.5552 31.5048 89.216 30.7417C88.898 29.9575 88.7391 29.1309 88.7391 28.2618V18.6283H91.5371V28.2618C91.5371 29.2368 91.8869 30.0741 92.5864 30.7735C93.2859 31.473 94.1126 31.8227 95.0664 31.8227C95.5116 31.8227 95.9567 31.7274 96.4019 31.5366C96.847 31.3458 97.2286 31.0915 97.5465 30.7735C98.246 30.0741 98.5958 29.2368 98.5958 28.2618V18.6283H101.362V34.4298H98.5958Z" fill="white"/>
<path d="M115.012 34.5252V24.9871C115.012 24.0332 114.662 23.2066 113.963 22.5071C113.285 21.8289 112.458 21.4897 111.483 21.4897C110.529 21.4897 109.702 21.8395 109.003 22.5389C108.685 22.8569 108.43 23.2384 108.24 23.6835C108.049 24.1074 107.953 24.5419 107.953 24.9871V34.5252H105.187V19.0098H107.953V20.3134C108.356 19.8259 108.886 19.4231 109.543 19.1052C110.2 18.7873 110.847 18.6283 111.483 18.6283C112.331 18.6283 113.136 18.7979 113.899 19.137C114.684 19.4549 115.372 19.9106 115.966 20.5041C116.538 21.0764 116.984 21.7547 117.301 22.5389C117.641 23.302 117.81 24.118 117.81 24.9871V34.5252H115.012Z" fill="white"/>
<path d="M129.012 41.2973C126.49 41.2973 124.306 40.1739 122.462 37.9272L124.974 36.4328C126.119 37.7682 127.465 38.4359 129.012 38.4359C129.712 38.4359 130.379 38.2981 131.015 38.0225C131.651 37.747 132.202 37.3655 132.669 36.878C133.135 36.3905 133.495 35.8288 133.75 35.1929C134.025 34.557 134.163 33.8893 134.163 33.1899V32.4268C132.722 34.0377 130.994 34.8432 128.98 34.8432C127.899 34.8432 126.861 34.6206 125.864 34.1755C124.889 33.7092 124.041 33.0839 123.321 32.2996C122.6 31.5154 122.028 30.6252 121.604 29.629C121.201 28.6328 120.999 27.6048 120.999 26.545C120.999 25.464 121.201 24.4466 121.604 23.4927C122.028 22.5177 122.61 21.6593 123.352 20.9174C124.094 20.1968 124.942 19.6351 125.896 19.2324C126.871 18.8296 127.899 18.6283 128.98 18.6283C130.146 18.6283 131.185 18.8826 132.096 19.3913C133.008 19.9 133.697 20.4723 134.163 21.1082V18.9144H137.025V33.1899C137.025 34.2921 136.813 35.3307 136.389 36.3057C135.986 37.2807 135.414 38.1497 134.672 38.9128C133.951 39.6546 133.093 40.2375 132.096 40.6614C131.121 41.0854 130.093 41.2973 129.012 41.2973ZM128.98 21.5215C128.281 21.5215 127.613 21.6593 126.977 21.9348C126.341 22.1892 125.79 22.5601 125.324 23.0476C124.857 23.5351 124.486 24.1074 124.211 24.7645C123.935 25.4004 123.798 26.0681 123.798 26.7675C123.798 27.467 123.935 28.1453 124.211 28.8023C124.486 29.4382 124.857 29.9893 125.324 30.4556C125.79 30.9219 126.341 31.2928 126.977 31.5684C127.613 31.8439 128.281 31.9817 128.98 31.9817C129.68 31.9817 130.347 31.8439 130.983 31.5684C131.619 31.2928 132.17 30.9219 132.637 30.4556C133.103 29.9893 133.463 29.4382 133.718 28.8023C133.993 28.1453 134.131 27.467 134.131 26.7675C134.131 26.0681 133.993 25.4004 133.718 24.7645C133.463 24.1074 133.103 23.5351 132.637 23.0476C132.17 22.5601 131.619 22.1892 130.983 21.9348C130.347 21.6593 129.68 21.5215 128.98 21.5215Z" fill="white"/>
<path d="M140.832 34.5252V13.3505H143.376V34.5252H140.832Z" fill="white"/>
<path fill-rule="evenodd" clip-rule="evenodd" d="M149.916 27.7849C149.916 28.2936 150.096 28.8235 150.456 29.3746C150.838 29.9257 151.273 30.392 151.76 30.7735C152.65 31.473 153.689 31.8227 154.876 31.8227C156.259 31.8227 157.454 31.3328 158.462 30.3529L160.46 32.3513C159.968 32.8396 159.431 33.2569 158.851 33.6032C157.642 34.3239 156.317 34.6842 154.876 34.6842C153.795 34.6842 152.767 34.4828 151.792 34.0801C150.817 33.6562 149.958 33.0733 149.216 32.3314C148.474 31.5896 147.892 30.7312 147.468 29.7561C147.065 28.7811 146.863 27.7531 146.863 26.6721C146.863 25.5911 147.065 24.5631 147.468 23.5881C147.892 22.5919 148.474 21.7229 149.216 20.981C149.937 20.2392 150.785 19.6669 151.76 19.2642C152.756 18.8614 153.795 18.6601 154.876 18.6601C155.957 18.6601 156.985 18.8614 157.96 19.2642C158.957 19.6669 159.815 20.2392 160.536 20.981C162.104 22.5919 162.889 24.4572 162.889 26.5768C162.889 26.9583 162.857 27.361 162.793 27.7849H149.916ZM152.428 21.8395C153.191 21.4579 154.007 21.2672 154.876 21.2672C155.745 21.2672 156.561 21.4579 157.324 21.8395C158.087 22.221 158.692 22.7297 159.137 23.3656C159.603 23.9803 159.836 24.6373 159.836 25.3368H149.916C149.916 24.6373 150.138 23.9803 150.584 23.3656C151.05 22.7297 151.665 22.221 152.428 21.8395Z" fill="white"/>
<path d="M79.409 31.6638C80.3416 31.6638 81.1047 31.367 81.6983 30.7735C82.313 30.1801 82.6203 29.4382 82.6203 28.548V13.3505H85.2276V28.548C85.2276 29.3746 85.0792 30.1483 84.7825 30.8689C84.5069 31.5896 84.1147 32.2255 83.606 32.7766C83.0761 33.3276 82.4508 33.7622 81.7301 34.0801C81.0093 34.3768 80.2356 34.5252 79.409 34.5252H76.5473V31.6638H79.409Z" fill="white"/>
</svg>
