<svg width="259" height="40" viewBox="0 0 259 40" fill="none" xmlns="http://www.w3.org/2000/svg">
<g clip-path="url(#clip0_31_1149)">
<path d="M0 29.6898V10.2544H2.97225L11.4723 24.4423H9.91678L18.2502 10.2544H21.2965V29.6898H17.8613V15.613H18.5187L11.4446 27.4686H9.83344L2.61114 15.613H3.44448V29.6898H0Z" fill="#2D2D2D"/>
<path d="M23.778 29.6898L32.5281 10.2544H36.1115L44.8894 29.6898H41.0838L33.5559 12.1702H35.0004L27.5003 29.6898H23.778ZM27.7781 25.1919L28.704 22.3599H39.2782L40.2041 25.1919H27.7781Z" fill="#2D2D2D"/>
<path d="M47.3339 29.6901V10.2546H55.3339C56.8517 10.2151 58.3605 10.499 59.7599 11.0875C60.9236 11.5878 61.915 12.418 62.6118 13.4753C63.2998 14.5852 63.6475 15.8722 63.6118 17.1773C63.6508 18.4829 63.3029 19.7708 62.6118 20.8793C61.9155 21.9305 60.9231 22.7517 59.7599 23.2393C58.3577 23.817 56.85 24.0944 55.3339 24.0538H49.3339L50.9265 22.3879V29.6901H47.3339ZM50.9265 22.7766L49.3154 21.0552H55.1488C56.4303 21.1495 57.7037 20.7854 58.7414 20.0279C59.147 19.6741 59.4669 19.2328 59.677 18.7374C59.8871 18.242 59.982 17.7054 59.9544 17.1681C59.9855 16.6303 59.8922 16.0926 59.6818 15.5967C59.4715 15.1007 59.1497 14.6599 58.7414 14.3083C57.6948 13.5713 56.4258 13.2182 55.1488 13.3087H49.3154L50.9265 11.5318V22.7766ZM60.0377 29.6901L55.121 22.6378H58.9821L63.9266 29.6901H60.0377Z" fill="#2D2D2D"/>
<path d="M67.6396 29.6898V10.2544H71.2971V29.6898H67.6396Z" fill="#2D2D2D"/>
<path d="M73.7508 29.6898L82.5009 10.2544H86.0565L94.8344 29.6898H91.0565L83.5287 12.1702H84.9731L77.4731 29.6898H73.7508ZM77.7786 25.1919L78.7045 22.3599H89.251L90.1769 25.1919H77.7786Z" fill="#2D2D2D"/>
<path d="M149.215 29.6898H148.659V10.2544H161.187V10.7819H149.215V29.6898ZM149.076 20.1109H159.937V20.6385H149.076V20.1109Z" fill="#2D2D2D"/>
<path d="M166.131 29.6898V10.2544H166.687V29.6898H166.131Z" fill="#2D2D2D"/>
<path d="M177.715 29.6898V10.7819H170.493V10.2544H185.493V10.7819H178.27V29.6898H177.715Z" fill="#2D2D2D"/>
<path d="M189.298 29.6898V10.2544H189.817L204.373 29.0512H204.067V10.2544H204.623V29.6898H204.15L189.548 10.893H189.817V29.6898H189.298Z" fill="#2D2D2D"/>
<path d="M212.521 29.1623H224.91V29.6898H211.947V10.2544H224.475V10.7819H212.521V29.1623ZM212.382 19.5556H223.243V20.0832H212.382V19.5556Z" fill="#2D2D2D"/>
<path d="M235.271 29.7734C233.902 29.7812 232.546 29.517 231.28 28.996C230.184 28.5849 229.207 27.9074 228.438 27.0247L228.827 26.6637C229.554 27.4772 230.461 28.1108 231.475 28.5147C232.666 29.0211 233.949 29.2763 235.243 29.2644C236.422 29.3047 237.597 29.1063 238.697 28.6813C239.522 28.3703 240.235 27.819 240.743 27.0987C241.176 26.4527 241.405 25.6919 241.401 24.9145C241.44 24.1168 241.205 23.3297 240.734 22.6841C240.244 22.0898 239.61 21.6309 238.892 21.3514C238.111 21.0141 237.302 20.7447 236.475 20.5462L233.845 19.8891C233.009 19.6835 232.196 19.3919 231.419 19.0191C230.706 18.6826 230.091 18.1697 229.632 17.5291C229.158 16.795 228.925 15.931 228.966 15.058C228.962 14.2144 229.196 13.3868 229.641 12.6702C230.156 11.8772 230.889 11.2504 231.753 10.8655C232.92 10.3615 234.185 10.1244 235.456 10.1714C236.497 10.1738 237.531 10.3393 238.521 10.6619C239.446 10.941 240.317 11.3761 241.095 11.9483L240.79 12.3925C240.022 11.8187 239.161 11.3833 238.243 11.1061C237.361 10.8378 236.444 10.6975 235.521 10.6896C234.371 10.6534 233.226 10.8583 232.16 11.2912C231.362 11.6148 230.676 12.165 230.188 12.8738C229.762 13.529 229.54 14.2954 229.549 15.0765C229.507 15.886 229.742 16.6856 230.216 17.344C230.688 17.9295 231.299 18.3876 231.993 18.6767C232.777 19.0154 233.589 19.2848 234.419 19.4819C235.345 19.6947 236.179 19.9168 237.049 20.1482C237.883 20.3775 238.692 20.6875 239.466 21.0737C240.17 21.4031 240.781 21.9025 241.243 22.5267C241.718 23.2403 241.951 24.0867 241.91 24.9423C241.912 25.7882 241.671 26.6169 241.216 27.3301C240.686 28.1286 239.932 28.7532 239.049 29.1255C237.85 29.6087 236.562 29.8296 235.271 29.7734Z" fill="#2D2D2D"/>
<path d="M251.966 29.7734C250.597 29.7812 249.241 29.517 247.975 28.996C246.878 28.5849 245.901 27.9074 245.132 27.0247L245.521 26.6637C246.249 27.4772 247.155 28.1108 248.169 28.5147C249.361 29.0211 250.644 29.2763 251.938 29.2644C253.117 29.3047 254.292 29.1063 255.392 28.6813C256.207 28.3655 256.909 27.8146 257.41 27.0987C257.843 26.4527 258.072 25.6919 258.068 24.9145C258.107 24.1168 257.871 23.3297 257.401 22.6841C256.929 22.0986 256.318 21.6404 255.623 21.3514C254.842 21.0141 254.034 20.7447 253.206 20.5462L250.577 19.8891C249.74 19.6835 248.927 19.3919 248.151 19.0191C247.441 18.6813 246.83 18.1685 246.373 17.5291C245.899 16.795 245.666 15.931 245.706 15.058C245.703 14.2144 245.937 13.3868 246.382 12.6702C246.897 11.8772 247.63 11.2504 248.493 10.8655C249.661 10.3615 250.926 10.1244 252.197 10.1714C253.238 10.1738 254.272 10.3393 255.262 10.6619C256.187 10.941 257.058 11.3761 257.836 11.9483L257.531 12.3925C256.749 11.8139 255.871 11.3783 254.938 11.1061C254.055 10.8378 253.138 10.6975 252.216 10.6896C251.066 10.6534 249.921 10.8583 248.855 11.2912C248.057 11.6148 247.371 12.165 246.882 12.8738C246.457 13.529 246.234 14.2954 246.243 15.0765C246.202 15.886 246.437 16.6856 246.91 17.344C247.382 17.9295 247.993 18.3876 248.688 18.6767C249.471 19.0154 250.283 19.2848 251.114 19.4819C251.994 19.6947 252.873 19.9168 253.744 20.1482C254.577 20.3775 255.387 20.6875 256.16 21.0737C256.864 21.4031 257.475 21.9025 257.938 22.5267C258.412 23.2403 258.646 24.0867 258.605 24.9423C258.606 25.7882 258.365 26.6169 257.91 27.3301C257.381 28.1286 256.627 28.7532 255.744 29.1255C254.545 29.6087 253.257 29.8296 251.966 29.7734Z" fill="#2D2D2D"/>
<path d="M125.437 2.29532C126.896 3.32032 128.133 4.62884 129.075 6.14268C130.017 7.65652 130.644 9.3446 130.918 11.1061C131.335 13.4356 131.011 15.8372 129.992 17.9732C129.693 18.5582 129.343 19.1157 128.946 19.6391C128.946 19.5836 129.251 19.2319 128.946 19.6391C128.566 20.0556 128.187 20.4628 127.77 20.8423C124.557 23.7391 119.946 24.6924 116.066 22.4989C114.337 21.5082 112.905 20.0738 111.917 18.3442C110.929 16.6145 110.421 14.6525 110.446 12.6609C110.48 10.5887 110.972 8.54978 111.888 6.6904C112.804 4.83103 114.12 3.19734 115.742 1.90661C116.909 0.981115 115.26 -0.647761 114.112 0.277737C112.417 1.65042 111.015 3.35013 109.991 5.27563C108.966 7.20113 108.34 9.31302 108.149 11.4855C107.931 13.8357 108.328 16.2023 109.302 18.3524C110.276 20.5026 111.794 22.3622 113.705 23.7484C115.806 25.2585 118.336 26.0563 120.924 26.0246C123.512 25.993 126.021 25.1336 128.085 23.5725C129.81 22.3208 131.194 20.6572 132.112 18.7334C133.029 16.8096 133.449 14.687 133.335 12.5591C133.235 10.1346 132.575 7.76617 131.407 5.63885C130.24 3.51152 128.595 1.683 126.603 0.296247C125.381 -0.555211 124.224 1.45312 125.437 2.29532Z" fill="#2D2D2D"/>
<path d="M124.075 11.1524C124.079 11.8767 123.845 12.5821 123.409 13.1607C123.205 13.4569 123.483 13.0867 123.344 13.244L123.14 13.4661C123.089 13.5231 123.033 13.5757 122.974 13.6235C122.974 13.6235 122.687 13.8733 122.853 13.7438C122.699 13.8625 122.535 13.9678 122.362 14.0584C122.297 14.099 122.229 14.1361 122.159 14.1695C122.029 14.225 122.011 14.2343 122.112 14.1695L121.946 14.2343C121.28 14.4845 120.552 14.5172 119.867 14.3276C119.181 14.138 118.573 13.7359 118.131 13.1792C118.066 13.0774 118.001 12.9849 117.946 12.8831C117.902 12.8173 117.862 12.7493 117.825 12.6795C117.825 12.6795 117.668 12.337 117.751 12.5314C117.672 12.3464 117.61 12.1542 117.566 11.9576L117.511 11.7262C117.511 11.5874 117.511 11.5689 117.511 11.6707C117.506 11.609 117.506 11.5472 117.511 11.4856C117.478 11.1577 117.496 10.8266 117.566 10.5045C117.609 10.3098 117.664 10.1181 117.733 9.93072C117.798 9.76927 117.879 9.61433 117.974 9.46798C118.129 9.17722 118.34 8.91948 118.594 8.70907C118.87 8.46251 119.182 8.25964 119.52 8.10749C119.344 8.16302 119.464 8.10749 119.52 8.10749L119.862 7.99644L120.094 7.94091C120.094 7.94091 120.446 7.87612 120.298 7.94091H120.511H121.14C121.39 7.94091 121.14 7.94091 121.316 7.94091C121.726 8.01031 122.119 8.15799 122.474 8.37589L122.668 8.4962L122.862 8.63503C122.779 8.57024 122.798 8.63503 122.862 8.63503C122.927 8.63503 123.14 8.90342 123.279 9.0515C123.775 9.65009 124.047 10.4028 124.048 11.1801C124.048 11.487 124.17 11.7812 124.387 11.9982C124.604 12.2151 124.898 12.337 125.205 12.337C125.512 12.337 125.806 12.2151 126.024 11.9982C126.241 11.7812 126.363 11.487 126.363 11.1801C126.352 10.0272 125.993 8.90434 125.332 7.95943C124.67 7.01452 123.739 6.29178 122.659 5.8863C121.578 5.49672 120.403 5.44661 119.293 5.74269C118.182 6.03877 117.189 6.66689 116.446 7.54294C115.857 8.23489 115.445 9.05874 115.243 9.94434C115.042 10.8299 115.058 11.7511 115.289 12.6293C115.521 13.5075 115.961 14.3168 116.573 14.9883C117.185 15.6598 117.95 16.1736 118.803 16.4859C119.656 16.7983 120.572 16.8999 121.473 16.7822C122.374 16.6645 123.233 16.3309 123.977 15.8099C124.721 15.2889 125.329 14.5958 125.747 13.7897C126.166 12.9836 126.383 12.0883 126.381 11.1801C126.359 10.8919 126.23 10.6224 126.019 10.4247C125.808 10.227 125.53 10.1154 125.241 10.1119C124.952 10.1084 124.672 10.2133 124.456 10.4059C124.24 10.5984 124.105 10.8648 124.075 11.1524Z" fill="#2D2D2D"/>
<path d="M115.742 30.1527C115.057 29.3561 114.21 28.7144 113.257 28.2701C112.305 27.8259 111.269 27.5894 110.218 27.5763C109.167 27.5631 108.125 27.7737 107.162 28.194C106.198 28.6143 105.336 29.2346 104.631 30.0139C103.814 30.9086 103.312 32.0458 103.201 33.2522C103.091 34.4586 103.378 35.668 104.02 36.6959C104.677 37.6219 105.527 38.3943 106.512 38.9599C107.496 39.5255 108.592 39.8709 109.723 39.9722C112.242 40.2313 114.298 38.8986 116.048 37.2512C117.168 36.2268 118.373 35.298 119.649 34.4748C121.563 33.138 123.623 32.0233 125.788 31.1522C127.807 30.3748 130.131 29.7177 132.27 30.2267C134.696 30.782 137.27 33.6603 135.65 36.1962C135.253 36.6613 134.754 37.028 134.192 37.2673C133.629 37.5066 133.019 37.612 132.409 37.5752C130.617 37.5682 128.873 36.9948 127.427 35.937C126.187 35.1041 125.02 37.1032 126.251 37.9361C127.407 38.7791 128.729 39.3641 130.13 39.6515C131.531 39.9389 132.978 39.922 134.372 39.602C135.473 39.35 136.46 38.7417 137.18 37.8715C137.9 37.0013 138.313 35.9179 138.353 34.7894C138.402 33.4732 138.06 32.1721 137.369 31.0503C136.679 29.9286 135.671 29.0365 134.474 28.4868C132.593 27.6975 130.517 27.4974 128.52 27.913C124.131 28.6534 119.983 31.1707 116.483 33.8362C115.261 34.7617 114.186 35.9926 112.909 36.8348C111.923 37.4662 110.751 37.7416 109.587 37.6154C108.423 37.4891 107.338 36.9687 106.51 36.1406C104.149 33.8732 106.131 30.7265 108.844 29.9583C109.811 29.7379 110.822 29.7947 111.758 30.1221C112.695 30.4495 113.521 31.0343 114.14 31.8093C115.066 32.9384 116.742 31.291 115.77 30.1712L115.742 30.1527Z" fill="#2D2D2D"/>
</g>
<defs>
<clipPath id="clip0_31_1149">
<rect width="258.605" height="40" fill="white"/>
</clipPath>
</defs>
</svg>
